<?xml version="1.0" encoding="utf-8"?>
<!-- Generator: Adobe Illustrator 19.0.0, SVG Export Plug-In . SVG Version: 6.00 Build 0)  -->
<svg version="1.1" id="Режим_изоляции"
	 xmlns="http://www.w3.org/2000/svg" xmlns:xlink="http://www.w3.org/1999/xlink" x="0px" y="0px" viewBox="0 0 268.46 236.137"
	 enable-background="new 0 0 268.46 236.137" xml:space="preserve">
<g>
	<g>
		<defs>
			<path id="SVGID_1_" d="M134.23,236.137C98.193,211.519,24.364,171.69,5.152,101.873C-22.447,1.571,66.646-20.046,134.23,16.889
				c67.584-36.935,156.678-15.318,129.078,84.984C244.096,171.69,170.267,211.519,134.23,236.137z"/>
		</defs>
		<use xlink:href="#SVGID_1_"  overflow="visible" fill="#82AE99"/>
		<clipPath id="SVGID_2_">
			<use xlink:href="#SVGID_1_"  overflow="visible"/>
		</clipPath>
		<path clip-path="url(#SVGID_2_)" fill="#E8B979" d="M240.528,48.456c-6.811,3.053-10.286,10.979-14.246,13.409
			c-2.415,1.482-5.462,1.76-8.21,1.002c-6.266-1.729-14.626-3.034-22.7-3.085c-8.075,0.051-16.435,1.356-22.7,3.085
			c-2.748,0.758-5.794,0.48-8.21-1.002c-3.96-2.43-7.435-10.356-14.246-13.409c-5.528-2.478-6.953,7.43-5.154,21.207
			c3.265,25.002,1.252,145.934,1.636,172.465c47.659-12.689,84.458-57.102,97.349-78.674c0.421-26.551-1.127-67.748,1.636-93.791
			C247.147,55.847,246.056,45.978,240.528,48.456z"/>
		<path clip-path="url(#SVGID_2_)" fill="#F8DEB2" d="M187.571,70.258l0.323-10.095c-1.681,0.156-3.34,0.357-4.959,0.593
			l0.304,9.502c0,1.196,0.97,2.166,2.166,2.166C186.601,72.424,187.571,71.454,187.571,70.258z"/>
		<path clip-path="url(#SVGID_2_)" fill="#F8DEB2" d="M197.538,69.966l0.324-10.127c-0.831-0.031-1.662-0.052-2.49-0.057
			c-0.828,0.005-1.659,0.027-2.49,0.057l0.324,10.127c0,1.196,0.97,2.166,2.166,2.166C196.568,72.133,197.538,71.163,197.538,69.966
			z"/>
		<path clip-path="url(#SVGID_2_)" fill="#F8DEB2" d="M202.849,60.163l0.323,10.095c0,1.196,0.97,2.166,2.166,2.166
			c1.196,0,2.166-0.97,2.166-2.166l0.304-9.502C206.189,60.52,204.53,60.319,202.849,60.163z"/>
		<path clip-path="url(#SVGID_2_)" fill="#3F3D39" d="M175.564,92.323c-2.102,0-3.262,1.853-3.262,3.823
			c0,1.97,1.159,3.823,3.262,3.823c2.102,0,3.261-1.853,3.261-3.823C178.825,94.176,177.666,92.323,175.564,92.323z"/>
		<path clip-path="url(#SVGID_2_)" fill="#3F3D39" d="M215.179,92.323c-2.102,0-3.261,1.853-3.261,3.823
			c0,1.97,1.159,3.823,3.261,3.823c2.102,0,3.261-1.853,3.261-3.823C218.441,94.176,217.281,92.323,215.179,92.323z"/>
		<path clip-path="url(#SVGID_2_)" fill="#3F3D39" d="M197.024,119.249c-0.87-0.174-0.957-0.87-0.957-1.826c0-0.956,0-0.946,0-3.076
			c0-2.131,1.652-2.479,3.174-3.044c1.522-0.565,2.088-1.087,2.088-2.131c0-1.044-2.132-2-5.958-2c-3.826,0-5.958,0.957-5.958,2
			c0,1.044,0.566,1.565,2.088,2.131c1.522,0.565,3.174,0.913,3.174,3.044c0,2.131,0,2.12,0,3.076c0,0.957-0.087,1.653-0.956,1.826
			c-0.87,0.174-1.382,1.275-0.386,1.553c1.348,0.375,2.823,0.348,4.076,0C198.406,120.525,197.893,119.423,197.024,119.249z"/>
		<g clip-path="url(#SVGID_2_)">
			<path fill="#E6A3A8" d="M206.811,46.047c0-1.706,0.688-3.778,0.911-4.692c0.11-0.448-0.081-1.564-1.463-0.995l-7.891,2.973
				c-1.904,0.717-4.092,0.717-5.995,0l-7.891-2.973c-1.381-0.569-1.572,0.547-1.463,0.995c0.224,0.914,0.911,2.986,0.911,4.692
				c0,1.706-0.688,3.778-0.911,4.692c-0.11,0.448,0.081,1.564,1.463,0.995l7.891-2.973c1.904-0.717,4.091-0.717,5.995,0l7.891,2.973
				c1.382,0.569,1.572-0.548,1.463-0.995C207.499,49.825,206.811,47.753,206.811,46.047z"/>
			<circle fill="#E8BEC1" cx="195.371" cy="45.924" r="3.214"/>
		</g>
		<g clip-path="url(#SVGID_2_)">
			<path fill="#F8DEB2" d="M233.154,112.737c0,1.196,1.013,2.166,2.262,2.166l8.572,0.263c0.002-1.622,0.007-3.243,0.016-4.858
				l-8.588,0.263C234.167,110.571,233.154,111.541,233.154,112.737z"/>
			<path fill="#F8DEB2" d="M243.989,120.266l-8.877,0.272c-1.249,0-2.262,0.97-2.262,2.166c0,1.196,1.013,2.166,2.262,2.166
				l8.892,0.272C243.997,123.521,243.992,121.895,243.989,120.266z"/>
			<path fill="#F8DEB2" d="M232.85,102.77c0,1.196,1.013,2.166,2.262,2.166l8.935,0.274c0.017-1.637,0.039-3.266,0.066-4.882
				l-9.001,0.276C233.862,100.604,232.85,101.574,232.85,102.77z"/>
			<path fill="#F8DEB2" d="M146.58,100.335c0.033,1.585,0.062,3.211,0.09,4.866l8.673-0.265c1.25,0,2.264-0.97,2.264-2.166
				c0-1.196-1.014-2.166-2.264-2.166L146.58,100.335z"/>
			<path fill="#F8DEB2" d="M157.608,122.704c0-1.196-1.014-2.166-2.264-2.166l-8.487-0.26c0.014,1.602,0.026,3.216,0.037,4.851
				l8.45-0.259C156.594,124.87,157.608,123.9,157.608,122.704z"/>
			<path fill="#F8DEB2" d="M157.303,112.737c0-1.196-1.014-2.166-2.264-2.166l-8.291-0.254c0.021,1.59,0.041,3.201,0.059,4.838
				l8.231-0.252C156.289,114.903,157.303,113.933,157.303,112.737z"/>
		</g>
		<path clip-path="url(#SVGID_2_)" fill="#DFD4C8" d="M75.59,236.398c18.514,0,38.227,5.806,54.482-2.309
			c-2.209-40.256-10.091-171.56-10.384-178.842c-0.153-3.808,5.555-14.785,3.358-15.24c-2.197-0.455-15.568-2.788-22.81-3.708
			c-2.42-0.307-2.843,3.637-3.102,4.542c-2.469,8.625-6.04,15.184-13.085,15.184c-7.045,0-8.454,0-8.454,0l-0.008,0.427v-0.427
			c0,0-2.494,0-11.756,0c-9.262,0-12.435-5.774-15.68-14.399c-3.246-8.625-4.638-16.575-9.471-16.688
			c-4.162-0.098-7.31,6.895-7.686,16.225c-0.297,7.376-7.998,149.781-10.02,192.857C37.262,242.179,57.022,236.398,75.59,236.398z"
			/>
		<path clip-path="url(#SVGID_2_)" fill="#9B816B" d="M119.688,55.247c-0.154-3.808,5.555-14.785,3.358-15.24
			c-2.197-0.455-15.568-2.788-22.811-3.708c-2.42-0.307-2.843,3.637-3.102,4.542c-2.469,8.625-6.04,15.184-13.085,15.184
			c-0.161,0-0.303,0-0.458,0l0,0c-6.795,16.55-8.888,38.169,5.163,50.568c4.444,3.555,10.666,4.444,15.999,3.555
			c5.629-1.655,12.624-5.382,17.561-9.257C120.871,76.361,119.793,57.855,119.688,55.247z"/>
		<path clip-path="url(#SVGID_2_)" fill="#404244" d="M87.559,144.507c-0.899,0.296-3.059,1.746-8.248,1.746
			c-2.802,0-2.565-5.693-2.565-7.439c0-3.703,1.743-3.353,3.622-4.266c1.878-0.913,2.577-1.755,2.577-3.441
			c0-1.685-2.631-7.087-7.354-7.087s-7.354,5.402-7.354,7.087c0,1.685,0.699,2.528,2.577,3.441c1.879,0.913,3.622,0.563,3.622,4.266
			c0,1.745,0.237,7.439-2.565,7.439c-5.19,0-7.349-1.451-8.248-1.746c-1.477-0.448-2.52,1.154-0.792,2.046
			c3.588,1.853,8.141,2.049,12.76,2.049c4.619,0,9.172-0.196,12.76-2.049C90.079,145.661,89.036,144.059,87.559,144.507z"/>
		<g clip-path="url(#SVGID_2_)">
			<path fill="#404244" d="M57.994,80.264c-2.688,0-3.021,3.193-3.021,5.597c0,2.403,0.099,5.773,3.021,5.773
				c2.922,0,3.021-3.37,3.021-5.773C61.015,83.457,60.682,80.264,57.994,80.264z"/>
			<path fill="#404244" d="M93.187,80.264c-2.688,0-3.021,3.193-3.021,5.597c0,2.403,0.099,5.773,3.021,5.773
				c2.922,0,3.021-3.37,3.021-5.773C96.208,83.457,95.875,80.264,93.187,80.264z"/>
		</g>
		<path clip-path="url(#SVGID_2_)" fill="#DFD4C8" d="M120.258,52.004c1.354-4.768,4.518-11.638,2.789-11.996
			c-2.197-0.455-15.568-2.788-22.81-3.708c-0.195-0.025-0.373-0.013-0.544,0.014c3.217,8.011,5.549,24.789,11.145,25.598
			C116.434,62.721,118.306,58.793,120.258,52.004z"/>
		<g clip-path="url(#SVGID_2_)">
			<path fill="#404244" d="M87.611,171.354c0-1.793,0.722-3.97,0.958-4.93c0.115-0.471-0.085-1.643-1.537-1.046l-8.291,3.124
				c-2,0.754-4.299,0.754-6.299,0l-8.292-3.124c-1.452-0.597-1.652,0.575-1.537,1.046c0.235,0.96,0.958,3.137,0.958,4.93
				c0,1.793-0.722,3.969-0.958,4.93c-0.115,0.47,0.085,1.643,1.537,1.046l8.292-3.124c2-0.754,4.299-0.754,6.299,0l8.292,3.124
				c1.452,0.598,1.652-0.575,1.537-1.046C88.334,175.324,87.611,173.147,87.611,171.354z"/>
			<circle fill="#9B816B" cx="75.591" cy="171.225" r="3.378"/>
		</g>
	</g>
	<path fill="#EDC790" d="M235.354,140.923c10.406-3.827,13.219,1.433,15.131,8.566c0.952,4.138-0.183,6.785-1.279,7.95
		c-1.127,1.198-3.362,1.422-3.809,0.206c0.447,1.215-0.87,3.295-2.465,3.882c-1.595,0.587-3.946-0.145-4.393-1.36
		c0.447,1.215-1.4,2.493-3.035,2.311c-1.589-0.177-4.169-1.458-6.125-5.227C226.214,150.58,224.948,144.75,235.354,140.923z"/>
	<path fill="#EDC790" d="M151.062,209.855c10.406-3.827,13.219,1.433,15.131,8.566c0.952,4.138-0.183,6.785-1.279,7.95
		c-1.127,1.198-3.362,1.422-3.808,0.206c0.447,1.215-0.87,3.295-2.465,3.882c-1.595,0.587-3.946-0.145-4.393-1.36
		c0.447,1.215-1.4,2.493-3.035,2.311c-1.589-0.177-4.169-1.458-6.126-5.227C141.922,219.512,140.656,213.682,151.062,209.855z"/>
	<path fill="#9B816B" d="M128.346,207.626c-7.189-1.411-9.616,6.242-10.772,12.132c-1.156,5.891-2.511,14.201,5.304,15.735
		c7.815,1.533,9.701-6.673,10.856-12.564C134.891,217.038,135.536,209.036,128.346,207.626z"/>
	<path fill="#9B816B" d="M25.449,133.248c7.189-1.411,9.616,6.242,10.772,12.132c1.156,5.89,2.511,14.201-5.304,15.735
		c-7.816,1.534-9.701-6.673-10.856-12.564C18.904,142.661,18.26,134.659,25.449,133.248z"/>
</g>
</svg>
